<svg width="1637" height="1494" viewBox="0 0 1637 1494" fill="none" xmlns="http://www.w3.org/2000/svg">
<path d="M1575.91 406.97C1575.91 398.477 1577.29 392.363 1580.04 388.63C1582.79 384.85 1587.55 382.96 1594.32 382.96C1601.09 382.96 1605.8 384.827 1608.46 388.56C1611.12 392.247 1612.45 398.36 1612.45 406.9C1612.45 415.393 1611.1 421.53 1608.39 425.31C1605.73 429.043 1600.99 430.91 1594.18 430.91C1587.37 430.91 1582.61 429.043 1579.9 425.31C1577.24 421.53 1575.91 415.417 1575.91 406.97ZM1595.37 396.47C1595.09 396.237 1594.69 396.12 1594.18 396.12C1593.67 396.12 1593.27 396.237 1592.99 396.47C1592.71 396.703 1592.48 397.217 1592.29 398.01C1591.96 399.41 1591.8 402.397 1591.8 406.97C1591.8 411.497 1591.94 414.437 1592.22 415.79C1592.55 417.097 1593.2 417.75 1594.18 417.75C1595.16 417.75 1595.79 417.097 1596.07 415.79C1596.4 414.437 1596.56 412.01 1596.56 408.51C1596.56 405.01 1596.51 402.583 1596.42 401.23C1596.37 399.877 1596.26 398.803 1596.07 398.01C1595.88 397.217 1595.65 396.703 1595.37 396.47Z" fill="white"/>
<path d="M1054.91 948.97C1054.91 940.477 1056.29 934.363 1059.04 930.63C1061.79 926.85 1066.55 924.96 1073.32 924.96C1080.09 924.96 1084.8 926.827 1087.46 930.56C1090.12 934.247 1091.45 940.36 1091.45 948.9C1091.45 957.393 1090.1 963.53 1087.39 967.31C1084.73 971.043 1079.99 972.91 1073.18 972.91C1066.37 972.91 1061.61 971.043 1058.9 967.31C1056.24 963.53 1054.91 957.417 1054.91 948.97ZM1074.37 938.47C1074.09 938.237 1073.69 938.12 1073.18 938.12C1072.67 938.12 1072.27 938.237 1071.99 938.47C1071.71 938.703 1071.48 939.217 1071.29 940.01C1070.96 941.41 1070.8 944.397 1070.8 948.97C1070.8 953.497 1070.94 956.437 1071.22 957.79C1071.55 959.097 1072.2 959.75 1073.18 959.75C1074.16 959.75 1074.79 959.097 1075.07 957.79C1075.4 956.437 1075.56 954.01 1075.56 950.51C1075.56 947.01 1075.51 944.583 1075.42 943.23C1075.37 941.877 1075.26 940.803 1075.07 940.01C1074.88 939.217 1074.65 938.703 1074.37 938.47Z" fill="white"/>
<path d="M1418.69 463.23C1418.69 447.457 1421.25 436.103 1426.36 429.17C1431.47 422.15 1440.31 418.64 1452.88 418.64C1465.45 418.64 1474.2 422.107 1479.14 429.04C1484.08 435.887 1486.55 447.24 1486.55 463.1C1486.55 478.873 1484.04 490.27 1479.01 497.29C1474.07 504.223 1465.27 507.69 1452.62 507.69C1439.97 507.69 1431.13 504.223 1426.1 497.29C1421.16 490.27 1418.69 478.917 1418.69 463.23ZM1454.83 443.73C1454.31 443.297 1453.57 443.08 1452.62 443.08C1451.67 443.08 1450.93 443.297 1450.41 443.73C1449.89 444.163 1449.46 445.117 1449.11 446.59C1448.5 449.19 1448.2 454.737 1448.2 463.23C1448.2 471.637 1448.46 477.097 1448.98 479.61C1449.59 482.037 1450.8 483.25 1452.62 483.25C1454.44 483.25 1455.61 482.037 1456.13 479.61C1456.74 477.097 1457.04 472.59 1457.04 466.09C1457.04 459.59 1456.95 455.083 1456.78 452.57C1456.69 450.057 1456.48 448.063 1456.13 446.59C1455.78 445.117 1455.35 444.163 1454.83 443.73Z" fill="white"/>
<path d="M1456.69 912.23C1456.69 896.457 1459.25 885.103 1464.36 878.17C1469.47 871.15 1478.31 867.64 1490.88 867.64C1503.45 867.64 1512.2 871.107 1517.14 878.04C1522.08 884.887 1524.55 896.24 1524.55 912.1C1524.55 927.873 1522.04 939.27 1517.01 946.29C1512.07 953.223 1503.27 956.69 1490.62 956.69C1477.97 956.69 1469.13 953.223 1464.1 946.29C1459.16 939.27 1456.69 927.917 1456.69 912.23ZM1492.83 892.73C1492.31 892.297 1491.57 892.08 1490.62 892.08C1489.67 892.08 1488.93 892.297 1488.41 892.73C1487.89 893.163 1487.46 894.117 1487.11 895.59C1486.5 898.19 1486.2 903.737 1486.2 912.23C1486.2 920.637 1486.46 926.097 1486.98 928.61C1487.59 931.037 1488.8 932.25 1490.62 932.25C1492.44 932.25 1493.61 931.037 1494.13 928.61C1494.74 926.097 1495.04 921.59 1495.04 915.09C1495.04 908.59 1494.95 904.083 1494.78 901.57C1494.69 899.057 1494.48 897.063 1494.13 895.59C1493.78 894.117 1493.35 893.163 1492.83 892.73Z" fill="white"/>
<path d="M1276.39 993.13C1276.39 989.49 1276.98 986.87 1278.16 985.27C1279.34 983.65 1281.38 982.84 1284.28 982.84C1287.18 982.84 1289.2 983.64 1290.34 985.24C1291.48 986.82 1292.05 989.44 1292.05 993.1C1292.05 996.74 1291.47 999.37 1290.31 1000.99C1289.17 1002.59 1287.14 1003.39 1284.22 1003.39C1281.3 1003.39 1279.26 1002.59 1278.1 1000.99C1276.96 999.37 1276.39 996.75 1276.39 993.13ZM1284.73 988.63C1284.61 988.53 1284.44 988.48 1284.22 988.48C1284 988.48 1283.83 988.53 1283.71 988.63C1283.59 988.73 1283.49 988.95 1283.41 989.29C1283.27 989.89 1283.2 991.17 1283.2 993.13C1283.2 995.07 1283.26 996.33 1283.38 996.91C1283.52 997.47 1283.8 997.75 1284.22 997.75C1284.64 997.75 1284.91 997.47 1285.03 996.91C1285.17 996.33 1285.24 995.29 1285.24 993.79C1285.24 992.29 1285.22 991.25 1285.18 990.67C1285.16 990.09 1285.11 989.63 1285.03 989.29C1284.95 988.95 1284.85 988.73 1284.73 988.63Z" fill="#8193B2"/>
<path d="M316.78 1119.26C316.78 1111.98 317.96 1106.74 320.32 1103.54C322.68 1100.3 326.76 1098.68 332.56 1098.68C338.36 1098.68 342.4 1100.28 344.68 1103.48C346.96 1106.64 348.1 1111.88 348.1 1119.2C348.1 1126.48 346.94 1131.74 344.62 1134.98C342.34 1138.18 338.28 1139.78 332.44 1139.78C326.6 1139.78 322.52 1138.18 320.2 1134.98C317.92 1131.74 316.78 1126.5 316.78 1119.26ZM333.46 1110.26C333.22 1110.06 332.88 1109.96 332.44 1109.96C332 1109.96 331.66 1110.06 331.42 1110.26C331.18 1110.46 330.98 1110.9 330.82 1111.58C330.54 1112.78 330.4 1115.34 330.4 1119.26C330.4 1123.14 330.52 1125.66 330.76 1126.82C331.04 1127.94 331.6 1128.5 332.44 1128.5C333.28 1128.5 333.82 1127.94 334.06 1126.82C334.34 1125.66 334.48 1123.58 334.48 1120.58C334.48 1117.58 334.44 1115.5 334.36 1114.34C334.32 1113.18 334.22 1112.26 334.06 1111.58C333.9 1110.9 333.7 1110.46 333.46 1110.26Z" fill="#B3BFD3"/>
<path d="M1429.78 575.26C1429.78 567.98 1430.96 562.74 1433.32 559.54C1435.68 556.3 1439.76 554.68 1445.56 554.68C1451.36 554.68 1455.4 556.28 1457.68 559.48C1459.96 562.64 1461.1 567.88 1461.1 575.2C1461.1 582.48 1459.94 587.74 1457.62 590.98C1455.34 594.18 1451.28 595.78 1445.44 595.78C1439.6 595.78 1435.52 594.18 1433.2 590.98C1430.92 587.74 1429.78 582.5 1429.78 575.26ZM1446.46 566.26C1446.22 566.06 1445.88 565.96 1445.44 565.96C1445 565.96 1444.66 566.06 1444.42 566.26C1444.18 566.46 1443.98 566.9 1443.82 567.58C1443.54 568.78 1443.4 571.34 1443.4 575.26C1443.4 579.14 1443.52 581.66 1443.76 582.82C1444.04 583.94 1444.6 584.5 1445.44 584.5C1446.28 584.5 1446.82 583.94 1447.06 582.82C1447.34 581.66 1447.48 579.58 1447.48 576.58C1447.48 573.58 1447.44 571.5 1447.36 570.34C1447.32 569.18 1447.22 568.26 1447.06 567.58C1446.9 566.9 1446.7 566.46 1446.46 566.26Z" fill="#B3BFD3"/>
<path d="M181.78 1359.26C181.78 1351.98 182.96 1346.74 185.32 1343.54C187.68 1340.3 191.76 1338.68 197.56 1338.68C203.36 1338.68 207.4 1340.28 209.68 1343.48C211.96 1346.64 213.1 1351.88 213.1 1359.2C213.1 1366.48 211.94 1371.74 209.62 1374.98C207.34 1378.18 203.28 1379.78 197.44 1379.78C191.6 1379.78 187.52 1378.18 185.2 1374.98C182.92 1371.74 181.78 1366.5 181.78 1359.26ZM198.46 1350.26C198.22 1350.06 197.88 1349.96 197.44 1349.96C197 1349.96 196.66 1350.06 196.42 1350.26C196.18 1350.46 195.98 1350.9 195.82 1351.58C195.54 1352.78 195.4 1355.34 195.4 1359.26C195.4 1363.14 195.52 1365.66 195.76 1366.82C196.04 1367.94 196.6 1368.5 197.44 1368.5C198.28 1368.5 198.82 1367.94 199.06 1366.82C199.34 1365.66 199.48 1363.58 199.48 1360.58C199.48 1357.58 199.44 1355.5 199.36 1354.34C199.32 1353.18 199.22 1352.26 199.06 1351.58C198.9 1350.9 198.7 1350.46 198.46 1350.26Z" fill="#B3BFD3"/>
<path d="M908.78 1117.26C908.78 1109.98 909.96 1104.74 912.32 1101.54C914.68 1098.3 918.76 1096.68 924.56 1096.68C930.36 1096.68 934.4 1098.28 936.68 1101.48C938.96 1104.64 940.1 1109.88 940.1 1117.2C940.1 1124.48 938.94 1129.74 936.62 1132.98C934.34 1136.18 930.28 1137.78 924.44 1137.78C918.6 1137.78 914.52 1136.18 912.2 1132.98C909.92 1129.74 908.78 1124.5 908.78 1117.26ZM925.46 1108.26C925.22 1108.06 924.88 1107.96 924.44 1107.96C924 1107.96 923.66 1108.06 923.42 1108.26C923.18 1108.46 922.98 1108.9 922.82 1109.58C922.54 1110.78 922.4 1113.34 922.4 1117.26C922.4 1121.14 922.52 1123.66 922.76 1124.82C923.04 1125.94 923.6 1126.5 924.44 1126.5C925.28 1126.5 925.82 1125.94 926.06 1124.82C926.34 1123.66 926.48 1121.58 926.48 1118.58C926.48 1115.58 926.44 1113.5 926.36 1112.34C926.32 1111.18 926.22 1110.26 926.06 1109.58C925.9 1108.9 925.7 1108.46 925.46 1108.26Z" fill="#B3BFD3"/>
<path d="M146.78 1224.26C146.78 1216.98 147.96 1211.74 150.32 1208.54C152.68 1205.3 156.76 1203.68 162.56 1203.68C168.36 1203.68 172.4 1205.28 174.68 1208.48C176.96 1211.64 178.1 1216.88 178.1 1224.2C178.1 1231.48 176.94 1236.74 174.62 1239.98C172.34 1243.18 168.28 1244.78 162.44 1244.78C156.6 1244.78 152.52 1243.18 150.2 1239.98C147.92 1236.74 146.78 1231.5 146.78 1224.26ZM163.46 1215.26C163.22 1215.06 162.88 1214.96 162.44 1214.96C162 1214.96 161.66 1215.06 161.42 1215.26C161.18 1215.46 160.98 1215.9 160.82 1216.58C160.54 1217.78 160.4 1220.34 160.4 1224.26C160.4 1228.14 160.52 1230.66 160.76 1231.82C161.04 1232.94 161.6 1233.5 162.44 1233.5C163.28 1233.5 163.82 1232.94 164.06 1231.82C164.34 1230.66 164.48 1228.58 164.48 1225.58C164.48 1222.58 164.44 1220.5 164.36 1219.34C164.32 1218.18 164.22 1217.26 164.06 1216.58C163.9 1215.9 163.7 1215.46 163.46 1215.26Z" fill="#B3BFD3"/>
<path d="M784.78 1186.26C784.78 1178.98 785.96 1173.74 788.32 1170.54C790.68 1167.3 794.76 1165.68 800.56 1165.68C806.36 1165.68 810.4 1167.28 812.68 1170.48C814.96 1173.64 816.1 1178.88 816.1 1186.2C816.1 1193.48 814.94 1198.74 812.62 1201.98C810.34 1205.18 806.28 1206.78 800.44 1206.78C794.6 1206.78 790.52 1205.18 788.2 1201.98C785.92 1198.74 784.78 1193.5 784.78 1186.26ZM801.46 1177.26C801.22 1177.06 800.88 1176.96 800.44 1176.96C800 1176.96 799.66 1177.06 799.42 1177.26C799.18 1177.46 798.98 1177.9 798.82 1178.58C798.54 1179.78 798.4 1182.34 798.4 1186.26C798.4 1190.14 798.52 1192.66 798.76 1193.82C799.04 1194.94 799.6 1195.5 800.44 1195.5C801.28 1195.5 801.82 1194.94 802.06 1193.82C802.34 1192.66 802.48 1190.58 802.48 1187.58C802.48 1184.58 802.44 1182.5 802.36 1181.34C802.32 1180.18 802.22 1179.26 802.06 1178.58C801.9 1177.9 801.7 1177.46 801.46 1177.26Z" fill="#D3DAE4"/>
<path d="M1175.78 991.26C1175.78 983.98 1176.96 978.74 1179.32 975.54C1181.68 972.3 1185.76 970.68 1191.56 970.68C1197.36 970.68 1201.4 972.28 1203.68 975.48C1205.96 978.64 1207.1 983.88 1207.1 991.2C1207.1 998.48 1205.94 1003.74 1203.62 1006.98C1201.34 1010.18 1197.28 1011.78 1191.44 1011.78C1185.6 1011.78 1181.52 1010.18 1179.2 1006.98C1176.92 1003.74 1175.78 998.5 1175.78 991.26ZM1192.46 982.26C1192.22 982.06 1191.88 981.96 1191.44 981.96C1191 981.96 1190.66 982.06 1190.42 982.26C1190.18 982.46 1189.98 982.9 1189.82 983.58C1189.54 984.78 1189.4 987.34 1189.4 991.26C1189.4 995.14 1189.52 997.66 1189.76 998.82C1190.04 999.94 1190.6 1000.5 1191.44 1000.5C1192.28 1000.5 1192.82 999.94 1193.06 998.82C1193.34 997.66 1193.48 995.58 1193.48 992.58C1193.48 989.58 1193.44 987.5 1193.36 986.34C1193.32 985.18 1193.22 984.26 1193.06 983.58C1192.9 982.9 1192.7 982.46 1192.46 982.26Z" fill="#D3DAE4"/>
<path d="M422.69 1196.87V1243H406.8V1213.88L397.14 1217.73L392.94 1206.39L409.32 1196.87H422.69Z" fill="#525F76"/>
<path d="M1356.69 732.87V779H1340.8V749.88L1331.14 753.73L1326.94 742.39L1343.32 732.87H1356.69Z" fill="#525F76"/>
<path d="M1107.69 1297.87V1344H1091.8V1314.88L1082.14 1318.73L1077.94 1307.39L1094.32 1297.87H1107.69Z" fill="#525F76"/>
<path d="M16.04 1246.92V1326H-11.2V1276.08L-27.76 1282.68L-34.96 1263.24L-6.88 1246.92H16.04Z" fill="white"/>
<path d="M1466.36 708.28V761H1448.2V727.72L1437.16 732.12L1432.36 719.16L1451.08 708.28H1466.36Z" fill="white"/>
<path d="M675.36 1097.28V1150H657.2V1116.72L646.16 1121.12L641.36 1108.16L660.08 1097.28H675.36Z" fill="white"/>
<path d="M1200.04 1077.92V1157H1172.8V1107.08L1156.24 1113.68L1149.04 1094.24L1177.12 1077.92H1200.04Z" fill="white"/>
<path d="M1633.68 30.64V57H1624.6V40.36L1619.08 42.56L1616.68 36.08L1626.04 30.64H1633.68Z" fill="#8193B2"/>
<path d="M1344.34 505.82V519H1339.8V510.68L1337.04 511.78L1335.84 508.54L1340.52 505.82H1344.34Z" fill="#8193B2"/>
<path d="M292.34 1445.82V1459H287.8V1450.68L285.04 1451.78L283.84 1448.54L288.52 1445.82H292.34Z" fill="#8193B2"/>
<path d="M1382.34 954.82V968H1377.8V959.68L1375.04 960.78L1373.84 957.54L1378.52 954.82H1382.34Z" fill="#8193B2"/>
<path d="M61.34 1154.82V1168H56.8V1159.68L54.04 1160.78L52.84 1157.54L57.52 1154.82H61.34Z" fill="#8193B2"/>
</svg>
