<svg width="1722" height="1465" viewBox="0 0 1722 1465" fill="none" xmlns="http://www.w3.org/2000/svg">
<path d="M290.69 1289.23C290.69 1273.46 293.247 1262.1 298.36 1255.17C303.473 1248.15 312.313 1244.64 324.88 1244.64C337.447 1244.64 346.2 1248.11 351.14 1255.04C356.08 1261.89 358.55 1273.24 358.55 1289.1C358.55 1304.87 356.037 1316.27 351.01 1323.29C346.07 1330.22 337.273 1333.69 324.62 1333.69C311.967 1333.69 303.127 1330.22 298.1 1323.29C293.16 1316.27 290.69 1304.92 290.69 1289.23ZM326.83 1269.73C326.31 1269.3 325.573 1269.08 324.62 1269.08C323.667 1269.08 322.93 1269.3 322.41 1269.73C321.89 1270.16 321.457 1271.12 321.11 1272.59C320.503 1275.19 320.2 1280.74 320.2 1289.23C320.2 1297.64 320.46 1303.1 320.98 1305.61C321.587 1308.04 322.8 1309.25 324.62 1309.25C326.44 1309.25 327.61 1308.04 328.13 1305.61C328.737 1303.1 329.04 1298.59 329.04 1292.09C329.04 1285.59 328.953 1281.08 328.78 1278.57C328.693 1276.06 328.477 1274.06 328.13 1272.59C327.783 1271.12 327.35 1270.16 326.83 1269.73Z" fill="white"/>
<path d="M821.69 891.23C821.69 875.457 824.247 864.103 829.36 857.17C834.473 850.15 843.313 846.64 855.88 846.64C868.447 846.64 877.2 850.107 882.14 857.04C887.08 863.887 889.55 875.24 889.55 891.1C889.55 906.873 887.037 918.27 882.01 925.29C877.07 932.223 868.273 935.69 855.62 935.69C842.967 935.69 834.127 932.223 829.1 925.29C824.16 918.27 821.69 906.917 821.69 891.23ZM857.83 871.73C857.31 871.297 856.573 871.08 855.62 871.08C854.667 871.08 853.93 871.297 853.41 871.73C852.89 872.163 852.457 873.117 852.11 874.59C851.503 877.19 851.2 882.737 851.2 891.23C851.2 899.637 851.46 905.097 851.98 907.61C852.587 910.037 853.8 911.25 855.62 911.25C857.44 911.25 858.61 910.037 859.13 907.61C859.737 905.097 860.04 900.59 860.04 894.09C860.04 887.59 859.953 883.083 859.78 880.57C859.693 878.057 859.477 876.063 859.13 874.59C858.783 873.117 858.35 872.163 857.83 871.73Z" fill="white"/>
<path d="M1572.26 170.42C1572.26 167.993 1572.65 166.247 1573.44 165.18C1574.23 164.1 1575.59 163.56 1577.52 163.56C1579.45 163.56 1580.8 164.093 1581.56 165.16C1582.32 166.213 1582.7 167.96 1582.7 170.4C1582.7 172.827 1582.31 174.58 1581.54 175.66C1580.78 176.727 1579.43 177.26 1577.48 177.26C1575.53 177.26 1574.17 176.727 1573.4 175.66C1572.64 174.58 1572.26 172.833 1572.26 170.42ZM1577.82 167.42C1577.74 167.353 1577.63 167.32 1577.48 167.32C1577.33 167.32 1577.22 167.353 1577.14 167.42C1577.06 167.487 1576.99 167.633 1576.94 167.86C1576.85 168.26 1576.8 169.113 1576.8 170.42C1576.8 171.713 1576.84 172.553 1576.92 172.94C1577.01 173.313 1577.2 173.5 1577.48 173.5C1577.76 173.5 1577.94 173.313 1578.02 172.94C1578.11 172.553 1578.16 171.86 1578.16 170.86C1578.16 169.86 1578.15 169.167 1578.12 168.78C1578.11 168.393 1578.07 168.087 1578.02 167.86C1577.97 167.633 1577.9 167.487 1577.82 167.42Z" fill="white"/>
<path d="M1162.39 430.13C1162.39 426.49 1162.98 423.87 1164.16 422.27C1165.34 420.65 1167.38 419.84 1170.28 419.84C1173.18 419.84 1175.2 420.64 1176.34 422.24C1177.48 423.82 1178.05 426.44 1178.05 430.1C1178.05 433.74 1177.47 436.37 1176.31 437.99C1175.17 439.59 1173.14 440.39 1170.22 440.39C1167.3 440.39 1165.26 439.59 1164.1 437.99C1162.96 436.37 1162.39 433.75 1162.39 430.13ZM1170.73 425.63C1170.61 425.53 1170.44 425.48 1170.22 425.48C1170 425.48 1169.83 425.53 1169.71 425.63C1169.59 425.73 1169.49 425.95 1169.41 426.29C1169.27 426.89 1169.2 428.17 1169.2 430.13C1169.2 432.07 1169.26 433.33 1169.38 433.91C1169.52 434.47 1169.8 434.75 1170.22 434.75C1170.64 434.75 1170.91 434.47 1171.03 433.91C1171.17 433.33 1171.24 432.29 1171.24 430.79C1171.24 429.29 1171.22 428.25 1171.18 427.67C1171.16 427.09 1171.11 426.63 1171.03 426.29C1170.95 425.95 1170.85 425.73 1170.73 425.63Z" fill="#8193B2"/>
<path d="M409.39 1268.13C409.39 1264.49 409.98 1261.87 411.16 1260.27C412.34 1258.65 414.38 1257.84 417.28 1257.84C420.18 1257.84 422.2 1258.64 423.34 1260.24C424.48 1261.82 425.05 1264.44 425.05 1268.1C425.05 1271.74 424.47 1274.37 423.31 1275.99C422.17 1277.59 420.14 1278.39 417.22 1278.39C414.3 1278.39 412.26 1277.59 411.1 1275.99C409.96 1274.37 409.39 1271.75 409.39 1268.13ZM417.73 1263.63C417.61 1263.53 417.44 1263.48 417.22 1263.48C417 1263.48 416.83 1263.53 416.71 1263.63C416.59 1263.73 416.49 1263.95 416.41 1264.29C416.27 1264.89 416.2 1266.17 416.2 1268.13C416.2 1270.07 416.26 1271.33 416.38 1271.91C416.52 1272.47 416.8 1272.75 417.22 1272.75C417.64 1272.75 417.91 1272.47 418.03 1271.91C418.17 1271.33 418.24 1270.29 418.24 1268.79C418.24 1267.29 418.22 1266.25 418.18 1265.67C418.16 1265.09 418.11 1264.63 418.03 1264.29C417.95 1263.95 417.85 1263.73 417.73 1263.63Z" fill="#8193B2"/>
<path d="M1497.39 44.13C1497.39 40.49 1497.98 37.87 1499.16 36.27C1500.34 34.65 1502.38 33.84 1505.28 33.84C1508.18 33.84 1510.2 34.64 1511.34 36.24C1512.48 37.82 1513.05 40.44 1513.05 44.1C1513.05 47.74 1512.47 50.37 1511.31 51.99C1510.17 53.59 1508.14 54.39 1505.22 54.39C1502.3 54.39 1500.26 53.59 1499.1 51.99C1497.96 50.37 1497.39 47.75 1497.39 44.13ZM1505.73 39.63C1505.61 39.53 1505.44 39.48 1505.22 39.48C1505 39.48 1504.83 39.53 1504.71 39.63C1504.59 39.73 1504.49 39.95 1504.41 40.29C1504.27 40.89 1504.2 42.17 1504.2 44.13C1504.2 46.07 1504.26 47.33 1504.38 47.91C1504.52 48.47 1504.8 48.75 1505.22 48.75C1505.64 48.75 1505.91 48.47 1506.03 47.91C1506.17 47.33 1506.24 46.29 1506.24 44.79C1506.24 43.29 1506.22 42.25 1506.18 41.67C1506.16 41.09 1506.11 40.63 1506.03 40.29C1505.95 39.95 1505.85 39.73 1505.73 39.63Z" fill="#8193B2"/>
<path d="M1391.78 910.26C1391.78 902.98 1392.96 897.74 1395.32 894.54C1397.68 891.3 1401.76 889.68 1407.56 889.68C1413.36 889.68 1417.4 891.28 1419.68 894.48C1421.96 897.64 1423.1 902.88 1423.1 910.2C1423.1 917.48 1421.94 922.74 1419.62 925.98C1417.34 929.18 1413.28 930.78 1407.44 930.78C1401.6 930.78 1397.52 929.18 1395.2 925.98C1392.92 922.74 1391.78 917.5 1391.78 910.26ZM1408.46 901.26C1408.22 901.06 1407.88 900.96 1407.44 900.96C1407 900.96 1406.66 901.06 1406.42 901.26C1406.18 901.46 1405.98 901.9 1405.82 902.58C1405.54 903.78 1405.4 906.34 1405.4 910.26C1405.4 914.14 1405.52 916.66 1405.76 917.82C1406.04 918.94 1406.6 919.5 1407.44 919.5C1408.28 919.5 1408.82 918.94 1409.06 917.82C1409.34 916.66 1409.48 914.58 1409.48 911.58C1409.48 908.58 1409.44 906.5 1409.36 905.34C1409.32 904.18 1409.22 903.26 1409.06 902.58C1408.9 901.9 1408.7 901.46 1408.46 901.26Z" fill="#B3BFD3"/>
<path d="M1499.78 683.26C1499.78 675.98 1500.96 670.74 1503.32 667.54C1505.68 664.3 1509.76 662.68 1515.56 662.68C1521.36 662.68 1525.4 664.28 1527.68 667.48C1529.96 670.64 1531.1 675.88 1531.1 683.2C1531.1 690.48 1529.94 695.74 1527.62 698.98C1525.34 702.18 1521.28 703.78 1515.44 703.78C1509.6 703.78 1505.52 702.18 1503.2 698.98C1500.92 695.74 1499.78 690.5 1499.78 683.26ZM1516.46 674.26C1516.22 674.06 1515.88 673.96 1515.44 673.96C1515 673.96 1514.66 674.06 1514.42 674.26C1514.18 674.46 1513.98 674.9 1513.82 675.58C1513.54 676.78 1513.4 679.34 1513.4 683.26C1513.4 687.14 1513.52 689.66 1513.76 690.82C1514.04 691.94 1514.6 692.5 1515.44 692.5C1516.28 692.5 1516.82 691.94 1517.06 690.82C1517.34 689.66 1517.48 687.58 1517.48 684.58C1517.48 681.58 1517.44 679.5 1517.36 678.34C1517.32 677.18 1517.22 676.26 1517.06 675.58C1516.9 674.9 1516.7 674.46 1516.46 674.26Z" fill="#D3DAE4"/>
<path d="M1548.69 528.87V575H1532.8V545.88L1523.14 549.73L1518.94 538.39L1535.32 528.87H1548.69Z" fill="white"/>
<path d="M757.69 917.87V964H741.8V934.88L732.14 938.73L727.94 927.39L744.32 917.87H757.69Z" fill="white"/>
<path d="M1127.69 660.87V707H1111.8V677.88L1102.14 681.73L1097.94 670.39L1114.32 660.87H1127.69Z" fill="white"/>
<path d="M32.69 1402.87V1449H16.8V1419.88L7.14 1423.73L2.94 1412.39L19.32 1402.87H32.69Z" fill="#525F76"/>
<path d="M1223.04 483.92V563H1195.8V513.08L1179.24 519.68L1172.04 500.24L1200.12 483.92H1223.04Z" fill="white"/>
<path d="M142.36 1378.28V1431H124.2V1397.72L113.16 1402.12L108.36 1389.16L127.08 1378.28H142.36Z" fill="white"/>
<path d="M1539.03 91.69V151H1518.6V113.56L1506.18 118.51L1500.78 103.93L1521.84 91.69H1539.03Z" fill="#8193B2"/>
<path d="M1697.03 244.69V304H1676.6V266.56L1664.18 271.51L1658.78 256.93L1679.84 244.69H1697.03Z" fill="#8193B2"/>
<path d="M1719.01 118.23V138H1712.2V125.52L1708.06 127.17L1706.26 122.31L1713.28 118.23H1719.01Z" fill="#8193B2"/>
</svg>
