<svg width="1658" height="1294" viewBox="0 0 1658 1294" fill="none" xmlns="http://www.w3.org/2000/svg">
<path d="M1054.91 579.97C1054.91 571.477 1056.29 565.363 1059.04 561.63C1061.79 557.85 1066.55 555.96 1073.32 555.96C1080.09 555.96 1084.8 557.827 1087.46 561.56C1090.12 565.247 1091.45 571.36 1091.45 579.9C1091.45 588.393 1090.1 594.53 1087.39 598.31C1084.73 602.043 1079.99 603.91 1073.18 603.91C1066.37 603.91 1061.61 602.043 1058.9 598.31C1056.24 594.53 1054.91 588.417 1054.91 579.97ZM1074.37 569.47C1074.09 569.237 1073.69 569.12 1073.18 569.12C1072.67 569.12 1072.27 569.237 1071.99 569.47C1071.71 569.703 1071.48 570.217 1071.29 571.01C1070.96 572.41 1070.8 575.397 1070.8 579.97C1070.8 584.497 1070.94 587.437 1071.22 588.79C1071.55 590.097 1072.2 590.75 1073.18 590.75C1074.16 590.75 1074.79 590.097 1075.07 588.79C1075.4 587.437 1075.56 585.01 1075.56 581.51C1075.56 578.01 1075.51 575.583 1075.42 574.23C1075.37 572.877 1075.26 571.803 1075.07 571.01C1074.88 570.217 1074.65 569.703 1074.37 569.47Z" fill="white"/>
<path d="M1.69 1014.23C1.69 998.457 4.24667 987.103 9.36 980.17C14.4733 973.15 23.3133 969.64 35.88 969.64C48.4467 969.64 57.2 973.107 62.14 980.04C67.08 986.887 69.55 998.24 69.55 1014.1C69.55 1029.87 67.0367 1041.27 62.01 1048.29C57.07 1055.22 48.2733 1058.69 35.62 1058.69C22.9667 1058.69 14.1267 1055.22 9.1 1048.29C4.16 1041.27 1.69 1029.92 1.69 1014.23ZM37.83 994.73C37.31 994.297 36.5733 994.08 35.62 994.08C34.6667 994.08 33.93 994.297 33.41 994.73C32.89 995.163 32.4567 996.117 32.11 997.59C31.5033 1000.19 31.2 1005.74 31.2 1014.23C31.2 1022.64 31.46 1028.1 31.98 1030.61C32.5867 1033.04 33.8 1034.25 35.62 1034.25C37.44 1034.25 38.61 1033.04 39.13 1030.61C39.7367 1028.1 40.04 1023.59 40.04 1017.09C40.04 1010.59 39.9533 1006.08 39.78 1003.57C39.6933 1001.06 39.4767 999.063 39.13 997.59C38.7833 996.117 38.35 995.163 37.83 994.73Z" fill="white"/>
<path d="M531.69 1203.23C531.69 1187.46 534.247 1176.1 539.36 1169.17C544.473 1162.15 553.313 1158.64 565.88 1158.64C578.447 1158.64 587.2 1162.11 592.14 1169.04C597.08 1175.89 599.55 1187.24 599.55 1203.1C599.55 1218.87 597.037 1230.27 592.01 1237.29C587.07 1244.22 578.273 1247.69 565.62 1247.69C552.967 1247.69 544.127 1244.22 539.1 1237.29C534.16 1230.27 531.69 1218.92 531.69 1203.23ZM567.83 1183.73C567.31 1183.3 566.573 1183.08 565.62 1183.08C564.667 1183.08 563.93 1183.3 563.41 1183.73C562.89 1184.16 562.457 1185.12 562.11 1186.59C561.503 1189.19 561.2 1194.74 561.2 1203.23C561.2 1211.64 561.46 1217.1 561.98 1219.61C562.587 1222.04 563.8 1223.25 565.62 1223.25C567.44 1223.25 568.61 1222.04 569.13 1219.61C569.737 1217.1 570.04 1212.59 570.04 1206.09C570.04 1199.59 569.953 1195.08 569.78 1192.57C569.693 1190.06 569.477 1188.06 569.13 1186.59C568.783 1185.12 568.35 1184.16 567.83 1183.73Z" fill="white"/>
<path d="M1587.69 48.23C1587.69 32.4567 1590.25 21.1033 1595.36 14.17C1600.47 7.14999 1609.31 3.63999 1621.88 3.63999C1634.45 3.63999 1643.2 7.10666 1648.14 14.04C1653.08 20.8867 1655.55 32.24 1655.55 48.1C1655.55 63.8733 1653.04 75.27 1648.01 82.29C1643.07 89.2233 1634.27 92.69 1621.62 92.69C1608.97 92.69 1600.13 89.2233 1595.1 82.29C1590.16 75.27 1587.69 63.9167 1587.69 48.23ZM1623.83 28.73C1623.31 28.2967 1622.57 28.08 1621.62 28.08C1620.67 28.08 1619.93 28.2967 1619.41 28.73C1618.89 29.1633 1618.46 30.1167 1618.11 31.59C1617.5 34.19 1617.2 39.7367 1617.2 48.23C1617.2 56.6367 1617.46 62.0967 1617.98 64.61C1618.59 67.0367 1619.8 68.25 1621.62 68.25C1623.44 68.25 1624.61 67.0367 1625.13 64.61C1625.74 62.0967 1626.04 57.59 1626.04 51.09C1626.04 44.59 1625.95 40.0833 1625.78 37.57C1625.69 35.0567 1625.48 33.0633 1625.13 31.59C1624.78 30.1167 1624.35 29.1633 1623.83 28.73Z" fill="white"/>
<path d="M1234.78 81.26C1234.78 73.98 1235.96 68.74 1238.32 65.54C1240.68 62.3 1244.76 60.68 1250.56 60.68C1256.36 60.68 1260.4 62.28 1262.68 65.48C1264.96 68.64 1266.1 73.88 1266.1 81.2C1266.1 88.48 1264.94 93.74 1262.62 96.98C1260.34 100.18 1256.28 101.78 1250.44 101.78C1244.6 101.78 1240.52 100.18 1238.2 96.98C1235.92 93.74 1234.78 88.5 1234.78 81.26ZM1251.46 72.26C1251.22 72.06 1250.88 71.96 1250.44 71.96C1250 71.96 1249.66 72.06 1249.42 72.26C1249.18 72.46 1248.98 72.9 1248.82 73.58C1248.54 74.78 1248.4 77.34 1248.4 81.26C1248.4 85.14 1248.52 87.66 1248.76 88.82C1249.04 89.94 1249.6 90.5 1250.44 90.5C1251.28 90.5 1251.82 89.94 1252.06 88.82C1252.34 87.66 1252.48 85.58 1252.48 82.58C1252.48 79.58 1252.44 77.5 1252.36 76.34C1252.32 75.18 1252.22 74.26 1252.06 73.58C1251.9 72.9 1251.7 72.46 1251.46 72.26Z" fill="#B3BFD3"/>
<path d="M1562.78 351.26C1562.78 343.98 1563.96 338.74 1566.32 335.54C1568.68 332.3 1572.76 330.68 1578.56 330.68C1584.36 330.68 1588.4 332.28 1590.68 335.48C1592.96 338.64 1594.1 343.88 1594.1 351.2C1594.1 358.48 1592.94 363.74 1590.62 366.98C1588.34 370.18 1584.28 371.78 1578.44 371.78C1572.6 371.78 1568.52 370.18 1566.2 366.98C1563.92 363.74 1562.78 358.5 1562.78 351.26ZM1579.46 342.26C1579.22 342.06 1578.88 341.96 1578.44 341.96C1578 341.96 1577.66 342.06 1577.42 342.26C1577.18 342.46 1576.98 342.9 1576.82 343.58C1576.54 344.78 1576.4 347.34 1576.4 351.26C1576.4 355.14 1576.52 357.66 1576.76 358.82C1577.04 359.94 1577.6 360.5 1578.44 360.5C1579.28 360.5 1579.82 359.94 1580.06 358.82C1580.34 357.66 1580.48 355.58 1580.48 352.58C1580.48 349.58 1580.44 347.5 1580.36 346.34C1580.32 345.18 1580.22 344.26 1580.06 343.58C1579.9 342.9 1579.7 342.46 1579.46 342.26Z" fill="#D3DAE4"/>
<path d="M1340.69 158.87V205H1324.8V175.88L1315.14 179.73L1310.94 168.39L1327.32 158.87H1340.69Z" fill="#525F76"/>
<path d="M916.04 1064.92V1144H888.8V1094.08L872.24 1100.68L865.04 1081.24L893.12 1064.92H916.04Z" fill="white"/>
<path d="M1203.04 948.92V1028H1175.8V978.08L1159.24 984.68L1152.04 965.24L1180.12 948.92H1203.04Z" fill="white"/>
<path d="M1587.04 437.92V517H1559.8V467.08L1543.24 473.68L1536.04 454.24L1564.12 437.92H1587.04Z" fill="white"/>
<path d="M457.34 1245.82V1259H452.8V1250.68L450.04 1251.78L448.84 1248.54L453.52 1245.82H457.34Z" fill="#8193B2"/>
</svg>
