<svg xmlns="http://www.w3.org/2000/svg" version="1.1" xmlns:xlink="http://www.w3.org/1999/xlink"  viewBox="0 0 140 140"><g transform="matrix(5.833333333333333,0,0,5.833333333333333,0,0)"><path d="M13.8,2.128a.75.75,0,0,0-1.061,0L10.613,4.249a.75.75,0,0,0,0,1.061l4.644,4.644H1.5a.75.75,0,0,0-.75.75v3a.75.75,0,0,0,.75.75H15.257L10.613,19.1a.75.75,0,0,0,0,1.061l2.121,2.121a.75.75,0,0,0,1.061,0l9.016-9.015a1.5,1.5,0,0,0,0-2.122Z" fill="current" stroke="current" stroke-linecap="round" stroke-linejoin="round" stroke-width="1.5"></path></g></svg>