<svg xmlns="http://www.w3.org/2000/svg" version="1.1" xmlns:xlink="http://www.w3.org/1999/xlink"  viewBox="0 0 140 140"><g transform="matrix(5.833333333333333,0,0,5.833333333333333,0,0)"><path d="M15 23.25L9 23.25 9.75 18.75 14.25 18.75 15 23.25z" fill="current" stroke="current" stroke-linecap="round" stroke-linejoin="round" stroke-width="1.5"></path><path d="M6.75 23.25L17.25 23.25" fill="current" stroke="current" stroke-linecap="round" stroke-linejoin="round" stroke-width="1.5"></path><path d="M0.750 0.750 L23.250 0.750 L23.250 18.750 L0.750 18.750 Z" fill="current" stroke="current" stroke-linecap="round" stroke-linejoin="round" stroke-width="1.5"></path><path d="M5.25 5.25L5.25 8.25" fill="current" stroke="current" stroke-linecap="round" stroke-linejoin="round" stroke-width="1.5"></path><path d="M14.25 5.25L14.25 8.25" fill="current" stroke="current" stroke-linecap="round" stroke-linejoin="round" stroke-width="1.5"></path><path d="M18.75 5.25L18.75 8.25" fill="current" stroke="current" stroke-linecap="round" stroke-linejoin="round" stroke-width="1.5"></path><path d="M18.75 11.25L18.75 14.25" fill="current" stroke="current" stroke-linecap="round" stroke-linejoin="round" stroke-width="1.5"></path><path d="M9.75 11.25L9.75 14.25" fill="current" stroke="current" stroke-linecap="round" stroke-linejoin="round" stroke-width="1.5"></path><path d="M5.25 11.25L5.25 14.25" fill="current" stroke="current" stroke-linecap="round" stroke-linejoin="round" stroke-width="1.5"></path><path d="M8.250 6.750 A1.500 1.500 0 1 0 11.250 6.750 A1.500 1.500 0 1 0 8.250 6.750 Z" fill="current" stroke="current" stroke-linecap="round" stroke-linejoin="round" stroke-width="1.5"></path><path d="M12.750 12.750 A1.500 1.500 0 1 0 15.750 12.750 A1.500 1.500 0 1 0 12.750 12.750 Z" fill="current" stroke="current" stroke-linecap="round" stroke-linejoin="round" stroke-width="1.5"></path></g></svg>