<svg xmlns="http://www.w3.org/2000/svg" version="1.1" xmlns:xlink="http://www.w3.org/1999/xlink" viewBox="0 0 140 140"><g transform="matrix(5.833333333333333,0,0,5.833333333333333,0,0)"><path d="M12.75 18.75L12.75 23.25" fill="current" stroke="current" stroke-linecap="round" stroke-linejoin="round" stroke-width="1.5"></path><path d="M3.75,8.25h16.5a3,3,0,0,1,3,3V18a.75.75,0,0,1-.75.75H6.75v-7.5A3,3,0,0,0,3.75,8.25Z" fill="current" stroke="current" stroke-linecap="round" stroke-linejoin="round" stroke-width="1.5"></path><path d="M6.75,18.75H1.5A.75.75,0,0,1,.75,18V11.25a3,3,0,0,1,6,0Z" fill="current" stroke="current" stroke-linecap="round" stroke-linejoin="round" stroke-width="1.5"></path><path d="M11.25 11.25L11.25 0.75" fill="current" stroke="current" stroke-linecap="round" stroke-linejoin="round" stroke-width="1.5"></path><path d="M11.25,5.25H16.5a2.25,2.25,0,0,0,0-4.5H11.25Z" fill="current" stroke="current" stroke-linecap="round" stroke-linejoin="round" stroke-width="1.5"></path></g></svg>