<svg xmlns="http://www.w3.org/2000/svg" version="1.1" xmlns:xlink="http://www.w3.org/1999/xlink" xmlns:svgjs="http://svgjs.com/svgjs" viewBox="0 0 140 140"><g transform="matrix(5.833333333333333,0,0,5.833333333333333,0,0)"><path d="M0.75 23.238L0.75 14.238" fill="none" stroke="current" stroke-linecap="round" stroke-linejoin="round" stroke-width="1.5"></path><path d="M14.25,14.238h9a0,0,0,0,1,0,0v8.5a.5.5,0,0,1-.5.5h-8a.5.5,0,0,1-.5-.5v-8.5A0,0,0,0,1,14.25,14.238Z" fill="none" stroke="current" stroke-linecap="round" stroke-linejoin="round" stroke-width="1.5"></path><path d="M1.25,11.238h21.5a.5.5,0,0,1,.5.5v2.5a0,0,0,0,1,0,0H.75a0,0,0,0,1,0,0v-2.5A.5.5,0,0,1,1.25,11.238Z" fill="none" stroke="current" stroke-linecap="round" stroke-linejoin="round" stroke-width="1.5"></path><path d="M14.25 18.738L23.25 18.738" fill="none" stroke="current" stroke-linecap="round" stroke-linejoin="round" stroke-width="1.5"></path><path d="M3.750 0.738 L15.750 0.738 L15.750 8.238 L3.750 8.238 Z" fill="none" stroke="current" stroke-linecap="round" stroke-linejoin="round" stroke-width="1.5"></path><path d="M9.75 8.238L9.75 11.238" fill="none" stroke="current" stroke-linecap="round" stroke-linejoin="round" stroke-width="1.5"></path></g></svg>