<svg xmlns="http://www.w3.org/2000/svg" version="1.1" xmlns:xlink="http://www.w3.org/1999/xlink" xmlns:svgjs="http://svgjs.com/svgjs" viewBox="0 0 140 140"><g transform="matrix(5.833333333333333,0,0,5.833333333333333,0,0)"><path d="M4.285,1.49l-.011,0A4.5,4.5,0,0,0,.75,5.885v.89a1.5,1.5,0,0,0,1.5,1.5H6a1.5,1.5,0,0,0,1.5-1.5h0A1.5,1.5,0,0,1,9,5.275h6a1.5,1.5,0,0,1,1.5,1.5h0a1.5,1.5,0,0,0,1.5,1.5h3.75a1.5,1.5,0,0,0,1.5-1.5v-.89a4.5,4.5,0,0,0-3.524-4.393l-.011,0A40.593,40.593,0,0,0,4.285,1.49Z" fill="current" stroke="current" stroke-linecap="round" stroke-linejoin="round" stroke-width="1.5"></path><path d="M12.305,11.275H11.7a9,9,0,0,0-8.931,7.884l-.093.744a3,3,0,0,0,2.977,3.372h12.7A3,3,0,0,0,21.328,19.9l-.093-.744A9,9,0,0,0,12.305,11.275Z" fill="current" stroke="current" stroke-linecap="round" stroke-linejoin="round" stroke-width="1.5"></path><path d="M9.75 11.487L9.75 9.025" fill="current" stroke="current" stroke-linecap="round" stroke-linejoin="round" stroke-width="1.5"></path><path d="M14.25 11.487L14.25 9.025" fill="current" stroke="current" stroke-linecap="round" stroke-linejoin="round" stroke-width="1.5"></path><path d="M9.000 17.275 A3.000 3.000 0 1 0 15.000 17.275 A3.000 3.000 0 1 0 9.000 17.275 Z" fill="current" stroke="current" stroke-linecap="round" stroke-linejoin="round" stroke-width="1.5"></path></g></svg>