<svg xmlns="http://www.w3.org/2000/svg" version="1.1" xmlns:xlink="http://www.w3.org/1999/xlink"  viewBox="0 0 140 140"><g transform="matrix(5.833333333333333,0,0,5.833333333333333,0,0)"><path d="M3.75,23.25,1.736,20.733A4.5,4.5,0,0,1,.75,17.922V12.75a1.5,1.5,0,0,1,1.5-1.5h0a1.5,1.5,0,0,1,1.5,1.5V16.5" fill="current" stroke="current" stroke-linecap="round" stroke-linejoin="round" stroke-width="1.5"></path><path d="M8.25,23.25V20.114a4.493,4.493,0,0,0-.757-2.5L6.351,15.9a1.4,1.4,0,0,0-1.977-.445h0A1.4,1.4,0,0,0,3.9,17.25L5.25,19.5" fill="current" stroke="current" stroke-linecap="round" stroke-linejoin="round" stroke-width="1.5"></path><path d="M20.25,23.25l2.014-2.517a4.5,4.5,0,0,0,.986-2.811V12.75a1.5,1.5,0,0,0-1.5-1.5h0a1.5,1.5,0,0,0-1.5,1.5V16.5" fill="current" stroke="current" stroke-linecap="round" stroke-linejoin="round" stroke-width="1.5"></path><path d="M15.75,23.25V20.114a4.493,4.493,0,0,1,.757-2.5L17.649,15.9a1.4,1.4,0,0,1,1.977-.445h0A1.4,1.4,0,0,1,20.1,17.25L18.75,19.5" fill="current" stroke="current" stroke-linecap="round" stroke-linejoin="round" stroke-width="1.5"></path><path d="M7.417 2.583L3.75 5.333 7.417 8.083" fill="current" stroke="current" stroke-linecap="round" stroke-linejoin="round" stroke-width="1.5"></path><path d="M16.583 2.583L20.25 5.333 16.583 8.083" fill="current" stroke="current" stroke-linecap="round" stroke-linejoin="round" stroke-width="1.5"></path><path d="M12.917 0.75L11.083 9.917" fill="current" stroke="current" stroke-linecap="round" stroke-linejoin="round" stroke-width="1.5"></path></g></svg>